<svg xmlns="http://www.w3.org/2000/svg"  viewBox="0 0 48 48" width="48px" height="48px" fill-rule="evenodd" clip-rule="evenodd" baseProfile="basic"><path fill="#1e4384" d="M46.031,15.901c-2.613-3.213-8.747-2.457-12.406-3.254c-4.681-1.02-8.546-2.874-13.421-1.714	c-3.689,0.878-6.86,3.039-9.166,6.019c-2.794,3.61-4.306,8.037-7.035,11.724c-1.964,2.654-5.238,7.266-1.119,9.631	c0.951,0.546,2.055,0.758,3.144,0.883c7.208,0.823,14.306-1.68,20.767-4.613c6.111-2.774,12.417-5.574,17.105-10.541	c1.097-1.163,2.107-2.464,2.59-3.988C47.079,18.19,46.812,16.861,46.031,15.901z M27.074,32.646	c-6.3,2.754-12.12,3.351-13.001,1.334c-0.881-2.016,3.511-5.881,9.811-8.635c6.3-2.754,12.12-3.35,13.001-1.334	S33.374,29.892,27.074,32.646z"/><path fill="#4b7bb2" fill-rule="evenodd" stroke="#010101" stroke-miterlimit="10" d="M46.457,17.038	c-1.799-3.229-7.249-2.633-10.302-2.402C32.045,14.946,25.89,16.643,22,18c-7.798,2.72-12.783,6.565-18.45,12.561	c-1.019,1.078-1.934,2.324-2.258,3.771c-1.023,4.557,4.057,5.578,7.504,5.523c9.461-0.153,18.361-3.426,26.377-8.303	c3.573-2.174,7.318-4.608,9.914-7.947C46.885,21.29,47.441,18.805,46.457,17.038z M27.139,32.787	c-3.443,1.573-7.213,2.557-10.673,2.342c-0.694-0.043-1.424-0.161-1.956-0.609c-1.595-1.345,0.682-3.204,1.63-4.087	c2.491-2.32,5.764-3.954,8.86-5.307c2.122-0.928,4.315-1.755,6.607-2.146c1.474-0.251,4.49-0.771,5.278,1.032	c0.811,1.855-2.075,3.928-3.262,4.855C31.762,30.319,29.529,31.695,27.139,32.787z" clip-rule="evenodd"/><path fill="none" stroke="#010101" stroke-linecap="round" stroke-miterlimit="10" d="M45.875,16.125	c-2.613-3.213-8.591-2.681-12.249-3.477c-4.681-1.02-8.546-2.874-13.421-1.714c-3.689,0.878-6.86,3.039-9.166,6.019	C8.245,20.564,7,24.625,4.004,28.677C3.435,29.447,2.077,32.38,1.5,33.375"/><path fill="none" stroke="#010101" stroke-miterlimit="10" d="M46.457,17.038	c0.984,1.767,0.428,4.252-1.371,6.567c-2.595,3.338-6.341,5.773-9.914,7.947c-8.017,4.877-16.917,8.15-26.377,8.303	c-3.447,0.056-8.526-0.966-7.504-5.523c0.325-1.447,1.24-2.693,2.258-3.771C9.217,24.565,14.202,20.72,22,18	c3.89-1.357,10.045-3.054,14.155-3.365C39.208,14.405,44.658,13.809,46.457,17.038z" clip-rule="evenodd"/></svg>